<mxfile host="app.diagrams.net" modified="2021-07-20T09:36:52.225Z" agent="5.0 (X11; Linux armv7l) AppleWebKit/537.36 (KHTML, like Gecko) Raspbian Chromium/78.0.3904.108 Chrome/78.0.3904.108 Safari/537.36" etag="umrrYYnAWS8GejQbMcu_" version="14.8.5" type="github">
  <diagram id="O1iOPmLM2nN6l2tMQOK4" name="Page-1">
    <mxGraphModel dx="721" dy="1044" grid="1" gridSize="10" guides="1" tooltips="1" connect="1" arrows="1" fold="1" page="1" pageScale="1" pageWidth="850" pageHeight="1100" math="0" shadow="0">
      <root>
        <mxCell id="0" />
        <mxCell id="1" parent="0" />
        <mxCell id="DMuz9y4sU72DclPxO34V-12" value="" style="rounded=0;whiteSpace=wrap;html=1;fillColor=#FFFFFF;rotation=90;" vertex="1" parent="1">
          <mxGeometry x="322.5" y="340" width="55" height="5" as="geometry" />
        </mxCell>
        <mxCell id="DMuz9y4sU72DclPxO34V-1" value="Сопло" style="shape=trapezoid;perimeter=trapezoidPerimeter;whiteSpace=wrap;html=1;fixedSize=1;rotation=-180;horizontal=0;" vertex="1" parent="1">
          <mxGeometry x="307.5" y="30" width="85" height="90" as="geometry" />
        </mxCell>
        <mxCell id="DMuz9y4sU72DclPxO34V-3" value="" style="endArrow=classic;html=1;" edge="1" parent="1">
          <mxGeometry width="50" height="50" relative="1" as="geometry">
            <mxPoint x="359.40999999999997" y="130" as="sourcePoint" />
            <mxPoint x="359.40999999999997" y="210" as="targetPoint" />
          </mxGeometry>
        </mxCell>
        <mxCell id="DMuz9y4sU72DclPxO34V-4" value="" style="endArrow=classic;html=1;" edge="1" parent="1">
          <mxGeometry width="50" height="50" relative="1" as="geometry">
            <mxPoint x="349.40999999999997" y="130" as="sourcePoint" />
            <mxPoint x="349.40999999999997" y="210" as="targetPoint" />
          </mxGeometry>
        </mxCell>
        <mxCell id="DMuz9y4sU72DclPxO34V-5" value="" style="rounded=0;whiteSpace=wrap;html=1;rotation=90;" vertex="1" parent="1">
          <mxGeometry x="305" y="260" width="90" height="2.5" as="geometry" />
        </mxCell>
        <mxCell id="DMuz9y4sU72DclPxO34V-7" value="" style="rounded=1;whiteSpace=wrap;html=1;rotation=90;" vertex="1" parent="1">
          <mxGeometry x="342.5" y="303.75" width="15" height="10" as="geometry" />
        </mxCell>
        <mxCell id="DMuz9y4sU72DclPxO34V-10" value="" style="rounded=0;whiteSpace=wrap;html=1;fillColor=#FF3333;rotation=90;" vertex="1" parent="1">
          <mxGeometry x="431.25" y="196.25" width="20" height="225" as="geometry" />
        </mxCell>
        <mxCell id="DMuz9y4sU72DclPxO34V-11" value="&lt;font style=&quot;font-size: 13px&quot;&gt;Установка с шаговым двигателем&lt;/font&gt;" style="rounded=0;whiteSpace=wrap;html=1;fillColor=#FF66B3;" vertex="1" parent="1">
          <mxGeometry x="430" y="280" width="100" height="92.5" as="geometry" />
        </mxCell>
        <mxCell id="DMuz9y4sU72DclPxO34V-25" style="edgeStyle=orthogonalEdgeStyle;rounded=0;orthogonalLoop=1;jettySize=auto;html=1;exitX=1;exitY=0.5;exitDx=0;exitDy=0;entryX=0.5;entryY=0;entryDx=0;entryDy=0;" edge="1" parent="1" source="DMuz9y4sU72DclPxO34V-15" target="DMuz9y4sU72DclPxO34V-20">
          <mxGeometry relative="1" as="geometry" />
        </mxCell>
        <mxCell id="DMuz9y4sU72DclPxO34V-15" value="Усилитель напряжения" style="rounded=0;whiteSpace=wrap;html=1;fillColor=#FFFFFF;horizontal=0;verticalAlign=middle;rotation=90;" vertex="1" parent="1">
          <mxGeometry x="137.5" y="330" width="40" height="77.5" as="geometry" />
        </mxCell>
        <mxCell id="DMuz9y4sU72DclPxO34V-17" value="" style="endArrow=classic;html=1;" edge="1" parent="1">
          <mxGeometry width="50" height="50" relative="1" as="geometry">
            <mxPoint x="339.40999999999997" y="130" as="sourcePoint" />
            <mxPoint x="339.40999999999997" y="210" as="targetPoint" />
          </mxGeometry>
        </mxCell>
        <mxCell id="DMuz9y4sU72DclPxO34V-18" value="" style="rounded=0;whiteSpace=wrap;html=1;fillColor=#FFFFFF;rotation=-90;direction=south;" vertex="1" parent="1">
          <mxGeometry x="322.5" y="340" width="5" height="55" as="geometry" />
        </mxCell>
        <mxCell id="DMuz9y4sU72DclPxO34V-24" style="edgeStyle=orthogonalEdgeStyle;rounded=0;orthogonalLoop=1;jettySize=auto;html=1;exitX=0;exitY=0.5;exitDx=0;exitDy=0;entryX=0.5;entryY=0;entryDx=0;entryDy=0;" edge="1" parent="1" source="DMuz9y4sU72DclPxO34V-14" target="DMuz9y4sU72DclPxO34V-15">
          <mxGeometry relative="1" as="geometry">
            <mxPoint x="200" y="368" as="targetPoint" />
            <Array as="points">
              <mxPoint x="200" y="368" />
              <mxPoint x="200" y="369" />
            </Array>
          </mxGeometry>
        </mxCell>
        <mxCell id="DMuz9y4sU72DclPxO34V-14" value="Датчик давления" style="whiteSpace=wrap;html=1;aspect=fixed;fillColor=#FFFFFF;" vertex="1" parent="1">
          <mxGeometry x="227.5" y="327.5" width="80" height="80" as="geometry" />
        </mxCell>
        <mxCell id="DMuz9y4sU72DclPxO34V-26" style="edgeStyle=orthogonalEdgeStyle;rounded=0;orthogonalLoop=1;jettySize=auto;html=1;exitX=1;exitY=0.5;exitDx=0;exitDy=0;" edge="1" parent="1" source="DMuz9y4sU72DclPxO34V-20" target="DMuz9y4sU72DclPxO34V-21">
          <mxGeometry relative="1" as="geometry" />
        </mxCell>
        <mxCell id="DMuz9y4sU72DclPxO34V-20" value="АЦП" style="rounded=1;whiteSpace=wrap;html=1;fillColor=#FFFFFF;verticalAlign=middle;" vertex="1" parent="1">
          <mxGeometry x="126.25" y="460" width="62.5" height="60" as="geometry" />
        </mxCell>
        <mxCell id="DMuz9y4sU72DclPxO34V-21" value="&lt;font style=&quot;font-size: 12px;&quot;&gt;&lt;span style=&quot;font-size: 12px;&quot;&gt;&amp;nbsp; &amp;nbsp;Компьютер&lt;/span&gt;&lt;/font&gt;" style="rounded=1;whiteSpace=wrap;html=1;fillColor=#FFFFFF;verticalAlign=middle;horizontal=1;align=left;fontSize=12;fontStyle=1" vertex="1" parent="1">
          <mxGeometry x="300" y="440" width="150" height="100" as="geometry" />
        </mxCell>
        <mxCell id="DMuz9y4sU72DclPxO34V-29" style="edgeStyle=orthogonalEdgeStyle;rounded=0;orthogonalLoop=1;jettySize=auto;html=1;exitX=0.5;exitY=0;exitDx=0;exitDy=0;entryX=0.5;entryY=1;entryDx=0;entryDy=0;fontSize=12;" edge="1" parent="1" source="DMuz9y4sU72DclPxO34V-28" target="DMuz9y4sU72DclPxO34V-11">
          <mxGeometry relative="1" as="geometry" />
        </mxCell>
        <mxCell id="DMuz9y4sU72DclPxO34V-28" value="Программа" style="rounded=1;whiteSpace=wrap;html=1;fontSize=12;fillColor=#FFFFFF;align=center;verticalAlign=middle;rotation=90;horizontal=1;fontStyle=1" vertex="1" parent="1">
          <mxGeometry x="377.5" y="465" width="77.5" height="50" as="geometry" />
        </mxCell>
        <mxCell id="DMuz9y4sU72DclPxO34V-31" value="Трубка Пито" style="text;html=1;align=center;verticalAlign=middle;resizable=0;points=[];autosize=1;strokeColor=none;fontSize=12;" vertex="1" parent="1">
          <mxGeometry x="225" y="220" width="80" height="20" as="geometry" />
        </mxCell>
        <mxCell id="DMuz9y4sU72DclPxO34V-34" value="" style="endArrow=classic;html=1;fontSize=12;" edge="1" parent="1">
          <mxGeometry width="50" height="50" relative="1" as="geometry">
            <mxPoint x="290" y="240" as="sourcePoint" />
            <mxPoint x="340.5" y="273.75" as="targetPoint" />
          </mxGeometry>
        </mxCell>
      </root>
    </mxGraphModel>
  </diagram>
</mxfile>
